<svg width="224" height="88" viewBox="0 0 224 88" fill="none" xmlns="http://www.w3.org/2000/svg">
  <style>
    path {
    fill: #202328;
    }
    @media (prefers-color-scheme: dark) {
    path {
    fill: white;
    }
    }
  </style>
  <path d="M23.105 78.9916C23.2159 79.4372 23.6161 79.75 24.0753 79.75H35.2341C35.6831 79.75 36.0771 79.4507 36.1975 79.0181L50.4938 27.65L64.3938 79.0112C64.5118 79.4472 64.9074 79.75 65.3591 79.75H77.1133C77.572 79.75 77.9719 79.4379 78.0833 78.9929L95.4826 9.49286C95.6407 8.86163 95.1633 8.25 94.5126 8.25H84.1803C83.7188 8.25 83.3172 8.56586 83.2085 9.0144L70.5938 61.05L56.5929 8.99029C56.4754 8.55354 56.0794 8.25 55.6272 8.25H46.1635C45.7098 8.25 45.3129 8.55545 45.1968 8.99405L31.4938 60.75L19.2757 9.02013C19.1691 8.56882 18.7662 8.25 18.3025 8.25H6.77325C6.12308 8.25 5.6458 8.86067 5.80287 9.49158L23.105 78.9916Z"/>
  <path d="M121.802 80.75C138.202 80.75 148.602 72.55 148.602 59.35C148.602 49.85 143.102 43.95 134.802 42.05C141.702 39.45 146.402 34.55 146.402 26.45C146.402 15.85 137.702 7.25 122.802 7.25C107.939 7.25 98.7379 16.215 97.5826 28.0945C97.527 28.6663 97.9852 29.15 98.5596 29.15H108.407C108.916 29.15 109.341 28.7649 109.423 28.262C110.515 21.5739 115.319 17.35 122.602 17.35C130.002 17.35 133.702 21.65 133.702 27.45C133.702 34.15 130.002 37.95 121.802 37.95H117.702C117.149 37.95 116.702 38.3977 116.702 38.95V46.45C116.702 47.0023 117.149 47.45 117.702 47.45H122.202C130.902 47.45 135.102 51.35 135.102 59.15C135.102 66.25 130.802 70.75 121.502 70.75C112.292 70.75 108.052 65.5966 107.105 58.5561C107.036 58.0444 106.607 57.65 106.091 57.65H95.9463C95.3769 57.65 94.9208 58.1268 94.9648 58.6945C95.9832 71.8255 105.237 80.75 121.802 80.75Z"/>
  <path d="M182.206 80.75C198.006 80.75 208.506 71.05 208.506 58.65C208.506 44.35 199.806 39.55 183.006 37.25C170.606 35.45 168.206 32.55 168.206 26.75C168.206 21.25 172.406 17.35 180.506 17.35C188.398 17.35 192.677 20.3138 194.147 27.222C194.248 27.6977 194.661 28.05 195.148 28.05H205.399C205.991 28.05 206.455 27.5355 206.375 26.9485C204.602 13.9749 195.488 7.35 180.506 7.35C165.606 7.35 155.606 16.15 155.606 27.85C155.606 41.25 163.706 46.45 180.806 48.75C192.406 50.65 195.706 53.15 195.706 59.75C195.706 66.35 190.106 70.75 182.206 70.75C170.6 70.75 167.458 65.2297 166.427 58.4251C166.351 57.9265 165.928 57.55 165.423 57.55H154.583C154.002 57.55 153.542 58.0455 153.602 58.6237C154.952 71.5614 163.227 80.75 182.206 80.75Z"/>
</svg>
