<svg width="167" height="76" viewBox="0 0 167 76" fill="none" xmlns="http://www.w3.org/2000/svg">
  <style>
    path {
    fill: #202328;
    }
    @media (prefers-color-scheme: dark) {
    path {
    fill: white;
    }
    }
  </style>
<path d="M2.21326 73.1983H47.2549C47.8072 73.1983 48.2549 72.7506 48.2549 72.1983V63.7794C48.2549 63.2271 47.8072 62.7794 47.2549 62.7794H15.4105V42.0408H39.4159C39.9682 42.0408 40.4159 41.5931 40.4159 41.0408V33.1181C40.4159 32.5658 39.9682 32.1181 39.4159 32.1181H15.4105V12.6694H45.568C46.1203 12.6694 46.568 12.2217 46.568 11.6694V3.25053C46.568 2.69825 46.1203 2.25053 45.568 2.25053H2.21326V73.1983Z"/>
<path d="M134.365 74.1906C150.042 74.1906 160.461 64.5655 160.461 52.2613C160.461 38.0717 151.829 33.3088 135.158 31.0266C122.854 29.2405 120.473 26.3628 120.473 20.6076C120.473 15.1501 124.64 11.2802 132.678 11.2802C140.506 11.2802 144.752 14.2194 146.211 21.0696C146.313 21.5453 146.726 21.8976 147.213 21.8976H157.369C157.962 21.8976 158.426 21.3832 158.345 20.7962C156.583 7.92836 147.54 1.35748 132.678 1.35748C117.893 1.35748 107.97 10.0895 107.97 21.6991C107.97 34.9957 116.007 40.1555 132.975 42.4377C144.486 44.3231 147.76 46.8037 147.76 53.3528C147.76 59.9018 142.204 64.2678 134.365 64.2678C122.852 64.2678 119.733 58.7938 118.708 52.0449C118.632 51.5463 118.209 51.1698 117.705 51.1698H106.963C106.382 51.1698 105.921 51.6652 105.982 52.2434C107.325 65.0768 115.536 74.1906 134.365 74.1906Z"/>
<path d="M52.4614 72.4075H102.127C102.68 72.4075 103.127 71.9598 103.127 71.4075V63.3135C103.127 62.7612 102.68 62.3135 102.127 62.3135H73.3354L88.9174 47.1235C97.2474 39.0875 102.637 31.1495 102.637 22.0355C102.637 9.68748 94.0134 1.35748 79.5094 1.35748C65.0568 1.35748 55.9325 9.77054 54.6928 24.4055C54.6442 24.9784 55.1019 25.4655 55.6768 25.4655H65.6852C66.1919 25.4655 66.6168 25.0858 66.6889 24.5843C68.0183 15.3283 72.3697 11.5495 79.1174 11.5495C85.8794 11.5495 89.6034 15.6655 89.6034 22.2315C89.6034 28.8955 85.5854 35.0695 78.9214 42.1255L52.4614 70.0555V72.4075Z"/>
</svg>
