<svg width="548" height="101" viewBox="0 0 548 101" fill="none" xmlns="http://www.w3.org/2000/svg">
<path d="M20.5796 78.3916C20.6905 78.8372 21.0907 79.15 21.55 79.15H32.7087C33.1577 79.15 33.5517 78.8507 33.6721 78.4181L47.9684 27.05L61.8685 78.4112C61.9864 78.8472 62.3821 79.15 62.8337 79.15H74.5879C75.0466 79.15 75.4465 78.8379 75.5579 78.3929L92.9572 8.89285C93.1153 8.26163 92.6379 7.64999 91.9872 7.64999H81.6549C81.1934 7.64999 80.7918 7.96585 80.6831 8.41439L68.0684 60.45L54.0675 8.39028C53.95 7.95354 53.5541 7.64999 53.1018 7.64999H43.6381C43.1844 7.64999 42.7875 7.95545 42.6714 8.39405L28.9684 60.15L16.7503 8.42013C16.6437 7.96881 16.2408 7.64999 15.7771 7.64999H4.24786C3.59769 7.64999 3.12041 8.26067 3.27748 8.89157L20.5796 78.3916Z" fill="white"/>
<path d="M116.584 80.15C129.51 80.15 138.248 74.5671 140.377 64.299C140.501 63.6986 140.031 63.15 139.418 63.15H129.723C129.238 63.15 128.827 63.5006 128.709 63.9712C127.556 68.5602 123.783 71.15 116.884 71.15C107.884 71.15 102.884 65.55 102.484 55.65H139.784C140.336 55.65 140.784 55.2023 140.784 54.65V52.15C140.784 33.45 129.084 25.75 116.084 25.75C101.184 25.75 90.084 36.55 90.084 52.75V53.55C90.084 70.05 101.184 80.15 116.584 80.15ZM102.684 47.55C103.884 39.45 108.784 34.55 116.084 34.55C123.584 34.55 128.184 38.55 128.784 47.55H102.684Z" fill="white"/>
<path d="M175.792 80.15C189.292 80.15 198.992 69.95 198.992 53.15V52.35C198.992 35.45 188.892 25.75 175.792 25.75C168.092 25.75 161.592 30.25 158.692 35.25V3.64999C158.692 3.09771 158.244 2.64999 157.692 2.64999H147.592C147.04 2.64999 146.592 3.09771 146.592 3.64999V78.15C146.592 78.7023 147.04 79.15 147.592 79.15H157.692C158.244 79.15 158.692 78.7023 158.692 78.15V70.75C161.492 76.05 167.492 80.15 175.792 80.15ZM172.792 70.55C163.992 70.55 158.292 65.05 158.292 53.35V52.55C158.292 40.95 164.292 35.25 172.692 35.25C180.592 35.25 186.592 40.95 186.592 52.55V53.35C186.592 64.55 181.692 70.55 172.792 70.55Z" fill="white"/>
<path d="M231.073 80.15C247.473 80.15 257.873 71.95 257.873 58.75C257.873 49.25 252.373 43.35 244.073 41.45C250.973 38.85 255.673 33.95 255.673 25.85C255.673 15.25 246.973 6.65 232.073 6.65C217.21 6.65 208.009 15.6149 206.854 27.4945C206.798 28.0662 207.257 28.55 207.831 28.55H217.678C218.188 28.55 218.612 28.1649 218.695 27.662C219.787 20.9739 224.59 16.75 231.873 16.75C239.273 16.75 242.973 21.05 242.973 26.85C242.973 33.55 239.273 37.35 231.073 37.35H226.973C226.421 37.35 225.973 37.7977 225.973 38.35V45.85C225.973 46.4023 226.421 46.85 226.973 46.85H231.473C240.173 46.85 244.373 50.75 244.373 58.55C244.373 65.65 240.073 70.15 230.773 70.15C221.564 70.15 217.324 64.9966 216.376 57.9561C216.307 57.4444 215.878 57.05 215.362 57.05H205.218C204.648 57.05 204.192 57.5268 204.236 58.0945C205.255 71.2255 214.509 80.15 231.073 80.15Z" fill="white"/>
<path d="M299.478 80.15C315.278 80.15 325.778 70.45 325.778 58.05C325.778 43.75 317.078 38.95 300.278 36.65C287.878 34.85 285.478 31.95 285.478 26.15C285.478 20.65 289.678 16.75 297.778 16.75C305.669 16.75 309.949 19.7138 311.418 26.622C311.52 27.0977 311.933 27.45 312.419 27.45H322.67C323.263 27.45 323.727 26.9355 323.646 26.3485C321.873 13.3749 312.759 6.75 297.778 6.75C282.878 6.75 272.878 15.55 272.878 27.25C272.878 40.65 280.978 45.85 298.078 48.15C309.678 50.05 312.978 52.55 312.978 59.15C312.978 65.75 307.378 70.15 299.478 70.15C287.872 70.15 284.73 64.6297 283.698 57.8251C283.623 57.3265 283.199 56.95 282.695 56.95H271.855C271.273 56.95 270.813 57.4455 270.873 58.0237C272.224 70.9614 280.499 80.15 299.478 80.15Z" fill="white"/>
<path d="M331.954 78.15C331.954 78.7023 332.402 79.15 332.954 79.15H343.054C343.607 79.15 344.054 78.7023 344.054 78.15V27.85C344.054 27.2977 343.607 26.85 343.054 26.85H332.954C332.402 26.85 331.954 27.2977 331.954 27.85V78.15ZM337.854 18.25C341.854 18.25 345.054 15.25 345.054 11.35C345.054 7.34999 341.854 4.35 337.854 4.35C333.854 4.35 330.654 7.34999 330.654 11.35C330.654 15.25 333.854 18.25 337.854 18.25Z" fill="white"/>
<path d="M375.103 98.35C391.303 98.35 401.603 90.65 401.703 75.25V27.85C401.703 27.2977 401.255 26.85 400.703 26.85H390.603C390.05 26.85 389.603 27.2977 389.603 27.85V34.85C386.603 29.65 381.403 25.75 372.803 25.75C359.303 25.75 349.303 36.75 349.303 51.45V52.15C349.303 67.25 359.403 77.05 372.503 77.05C380.203 77.05 386.703 72.35 389.603 67.35V75.05C389.603 84.45 384.403 89.15 375.003 89.15C367.52 89.15 363.537 86.4588 362.287 81.7561C362.163 81.2927 361.756 80.95 361.277 80.95H351.052C350.445 80.95 349.976 81.4885 350.09 82.0852C351.882 91.505 359.33 98.35 375.103 98.35ZM375.503 67.75C367.703 67.75 361.703 61.75 361.703 52.05V51.25C361.703 41.75 366.903 35.25 375.903 35.25C384.603 35.25 390.003 41.15 390.003 51.05V51.75C390.003 61.75 383.903 67.75 375.503 67.75Z" fill="white"/>
<path d="M409.084 78.15C409.084 78.7023 409.532 79.15 410.084 79.15H420.184C420.736 79.15 421.184 78.7023 421.184 78.15V48.35C421.184 40.05 426.684 35.85 433.484 35.85C440.684 35.85 443.884 39.45 443.884 47.35V78.15C443.884 78.7023 444.332 79.15 444.884 79.15H454.984C455.536 79.15 455.984 78.7023 455.984 78.15V46.25C455.984 31.85 448.584 25.75 438.084 25.75C429.484 25.75 423.684 30.05 421.184 35.15V27.85C421.184 27.2977 420.736 26.85 420.184 26.85H410.084C409.532 26.85 409.084 27.2977 409.084 27.85V78.15Z" fill="white"/>
<path d="M486.924 80.15C499.85 80.15 508.588 74.5671 510.716 64.299C510.841 63.6986 510.371 63.15 509.757 63.15H500.063C499.578 63.15 499.167 63.5006 499.049 63.9712C497.895 68.5602 494.122 71.15 487.224 71.15C478.224 71.15 473.224 65.55 472.824 55.65H510.124C510.676 55.65 511.124 55.2023 511.124 54.65V52.15C511.124 33.45 499.424 25.75 486.424 25.75C471.524 25.75 460.424 36.55 460.424 52.75V53.55C460.424 70.05 471.524 80.15 486.924 80.15ZM473.024 47.55C474.224 39.45 479.124 34.55 486.424 34.55C493.924 34.55 498.524 38.55 499.124 47.55H473.024Z" fill="white"/>
<path d="M515.932 78.15C515.932 78.7023 516.379 79.15 516.932 79.15H527.032C527.584 79.15 528.032 78.7023 528.032 78.15V51.95C528.032 41.2001 534.034 37.6722 544.041 37.3694C544.589 37.3529 545.032 36.908 545.032 36.3594V27.0614C545.032 26.5047 544.575 26.0532 544.019 26.079C535.852 26.4586 531.203 30.3077 528.032 36.65V27.85C528.032 27.2977 527.584 26.85 527.032 26.85H516.932C516.379 26.85 515.932 27.2977 515.932 27.85V78.15Z" fill="white"/>
</svg>
