<svg width="508" height="122" viewBox="0 0 508 122" fill="none" xmlns="http://www.w3.org/2000/svg">
  <style>
    path {
    fill: white;
    }
  </style>
<path d="M12.7133 92.4483H57.7549C58.3072 92.4483 58.7549 92.0006 58.7549 91.4483V83.0294C58.7549 82.4771 58.3072 82.0294 57.7549 82.0294H25.9105V61.2908H49.9159C50.4682 61.2908 50.9159 60.8431 50.9159 60.2908V52.3681C50.9159 51.8158 50.4682 51.368 49.9159 51.368H25.9105V31.9194H56.068C56.6203 31.9194 57.068 31.4717 57.068 30.9194V22.5005C57.068 21.9482 56.6203 21.5005 56.068 21.5005H12.7133V92.4483Z"/>
<path d="M82.3695 93.3413C85.6308 93.3413 88.0309 92.8715 89.8479 92.2797C90.2462 92.15 90.5062 91.7731 90.5062 91.3541V84.0188C90.5062 83.307 89.7805 82.8198 89.0939 83.0073C87.8008 83.3603 86.3838 83.5178 84.6517 83.5178C80.8811 83.5178 78.6981 81.434 78.6981 76.8696V49.582H89.1093C89.6616 49.582 90.1093 49.1342 90.1093 48.582V41.5522C90.1093 41 89.6616 40.5522 89.1093 40.5522H78.6981V30.1411C78.6981 29.5888 78.2504 29.1411 77.6981 29.1411H67.6915C67.1393 29.1411 66.6915 29.5888 66.6915 30.1411V40.5522H60.7456C60.1933 40.5522 59.7456 41 59.7456 41.5522V48.582C59.7456 49.1342 60.1933 49.582 60.7456 49.582H66.6915V77.9611C66.6915 87.7846 72.0498 93.3413 82.3695 93.3413Z"/>
<path d="M97.3668 91.4483C97.3668 92.0006 97.8146 92.4483 98.3668 92.4483H108.373C108.926 92.4483 109.373 92.0006 109.373 91.4483V61.8862C109.373 53.6503 114.831 49.4827 121.578 49.4827C128.723 49.4827 131.898 53.0549 131.898 60.8939V91.4483C131.898 92.0006 132.346 92.4483 132.898 92.4483H142.905C143.457 92.4483 143.905 92.0006 143.905 91.4483V59.8024C143.905 45.5136 136.562 39.4607 126.143 39.4607C117.609 39.4607 111.854 43.7275 109.373 48.7881V17.5391C109.373 16.9869 108.926 16.5391 108.373 16.5391H98.3668C97.8146 16.5391 97.3668 16.9869 97.3668 17.5391V91.4483Z"/>
<path d="M244.865 93.4406C260.542 93.4406 270.961 83.8155 270.961 71.5113C270.961 57.3217 262.329 52.5588 245.658 50.2766C233.354 48.4905 230.973 45.6128 230.973 39.8576C230.973 34.4001 235.14 30.5302 243.178 30.5302C251.006 30.5302 255.252 33.4694 256.711 40.3196C256.813 40.7953 257.226 41.1476 257.713 41.1476H267.869C268.462 41.1476 268.926 40.6332 268.845 40.0462C267.083 27.1784 258.04 20.6075 243.178 20.6075C228.393 20.6075 218.47 29.3395 218.47 40.9491C218.47 54.2457 226.507 59.4055 243.475 61.6877C254.986 63.573 258.26 66.0537 258.26 72.6028C258.26 79.1518 252.704 83.5178 244.865 83.5178C233.352 83.5178 230.233 78.0438 229.208 71.2949C229.132 70.7963 228.709 70.4198 228.205 70.4198H217.463C216.882 70.4198 216.421 70.9152 216.482 71.4934C217.825 84.3268 226.036 93.4406 244.865 93.4406Z"/>
<path d="M277.09 91.4483C277.09 92.0006 277.538 92.4483 278.09 92.4483H288.097C288.649 92.4483 289.097 92.0006 289.097 91.4483V41.5522C289.097 41 288.649 40.5522 288.097 40.5522H278.09C277.538 40.5522 277.09 41 277.09 41.5522V91.4483ZM282.945 32.0187C286.914 32.0187 290.089 29.0418 290.089 25.172C290.089 21.2028 286.914 18.226 282.945 18.226C278.976 18.226 275.8 21.2028 275.8 25.172C275.8 29.0418 278.976 32.0187 282.945 32.0187Z"/>
<path d="M320.898 111.5C336.973 111.5 347.193 103.859 347.292 88.5784V41.5522C347.292 41 346.845 40.5522 346.292 40.5522H336.286C335.733 40.5522 335.286 41 335.286 41.5522V48.4904C332.309 43.3306 327.149 39.4607 318.615 39.4607C305.22 39.4607 295.297 50.3758 295.297 64.9622V65.6568C295.297 80.6402 305.319 90.3645 318.318 90.3645C325.958 90.3645 332.408 85.7008 335.286 80.7394V88.38C335.286 97.7074 330.126 102.371 320.798 102.371C313.377 102.371 309.424 99.703 308.182 95.0404C308.059 94.5771 307.652 94.2344 307.172 94.2344H297.042C296.435 94.2344 295.966 94.7729 296.08 95.3696C297.861 104.712 305.251 111.5 320.898 111.5ZM321.295 81.1363C313.555 81.1363 307.601 75.1827 307.601 65.5576V64.7638C307.601 55.3372 312.761 48.8874 321.692 48.8874C330.324 48.8874 335.683 54.7418 335.683 64.5653V65.2599C335.683 75.1827 329.63 81.1363 321.295 81.1363Z"/>
<path d="M355.609 91.4483C355.609 92.0006 356.057 92.4483 356.609 92.4483H366.615C367.168 92.4483 367.615 92.0006 367.615 91.4483V61.8862C367.615 53.6503 373.073 49.4827 379.82 49.4827C386.965 49.4827 390.14 53.0549 390.14 60.8939V91.4483C390.14 92.0006 390.588 92.4483 391.14 92.4483H401.147C401.699 92.4483 402.147 92.0006 402.147 91.4483V59.8024C402.147 45.5136 394.804 39.4607 384.385 39.4607C375.851 39.4607 370.096 43.7275 367.615 48.7881V41.5522C367.615 41 367.168 40.5522 366.615 40.5522H356.609C356.057 40.5522 355.609 41 355.609 41.5522V91.4483Z"/>
<path d="M433.84 93.4406C446.662 93.4406 455.332 87.904 457.447 77.7208C457.571 77.1205 457.101 76.5719 456.488 76.5719H446.884C446.398 76.5719 445.988 76.9225 445.87 77.393C444.723 81.9426 440.98 84.5101 434.137 84.5101C425.207 84.5101 420.246 78.9533 419.849 69.1298H456.853C457.405 69.1298 457.853 68.6821 457.853 68.1298V65.6568C457.853 47.1013 446.243 39.4607 433.344 39.4607C418.559 39.4607 407.544 50.1773 407.544 66.2522V67.046C407.544 83.4186 418.559 93.4406 433.84 93.4406ZM420.047 61.0924C421.238 53.0549 426.1 48.1928 433.344 48.1928C440.786 48.1928 445.35 52.1619 445.945 61.0924H420.047Z"/>
<path d="M464.608 91.4483C464.608 92.0006 465.056 92.4483 465.608 92.4483H475.615C476.167 92.4483 476.615 92.0006 476.615 91.4483V65.4584C476.615 54.7943 482.568 51.2926 492.493 50.9907C493.041 50.974 493.483 50.5291 493.483 49.9805V40.7698C493.483 40.2131 493.026 39.7616 492.47 39.7876C484.371 40.1664 479.76 43.9852 476.615 50.2766V41.5522C476.615 41 476.167 40.5522 475.615 40.5522H465.608C465.056 40.5522 464.608 41 464.608 41.5522V91.4483Z"/>
<path d="M149.953 91.5H199.619C200.172 91.5 200.619 91.0523 200.619 90.5V82.406C200.619 81.8537 200.172 81.406 199.619 81.406H170.827L186.409 66.216C194.739 58.18 200.129 50.242 200.129 41.128C200.129 28.78 191.505 20.45 177.001 20.45C162.549 20.45 153.424 28.8631 152.185 43.4981C152.136 44.0709 152.594 44.558 153.169 44.558H163.177C163.684 44.558 164.109 44.1783 164.181 43.6768C165.51 34.4208 169.861 30.642 176.609 30.642C183.371 30.642 187.095 34.758 187.095 41.324C187.095 47.988 183.077 54.162 176.413 61.218L149.953 89.148V91.5Z"/>
</svg>
